<svg width="22" height="30" viewBox="0 0 22 30" fill="none" xmlns="http://www.w3.org/2000/svg">
<path d="M11.0976 6.57446C8.98339 6.57446 7.26251 8.29534 7.26251 10.4096C7.26251 12.5238 8.98339 14.2447 11.0976 14.2447C13.2119 14.2447 14.9328 12.5238 14.9328 10.4096C14.9328 8.29534 13.2119 6.57446 11.0976 6.57446ZM11.0976 13.149C9.58715 13.149 8.35826 11.9201 8.35826 10.4096C8.35826 8.8991 9.58715 7.67021 11.0976 7.67021C12.6081 7.67021 13.837 8.8991 13.837 10.4096C13.837 11.9201 12.6081 13.149 11.0976 13.149Z" fill="#D1A954"/>
<path d="M18.4302 3.07741C16.4458 1.09301 13.8073 0 11.001 0C8.19428 0 5.55626 1.09301 3.57186 3.07741C-0.100545 6.74927 -0.556925 13.658 2.58349 17.8437L11.001 30L19.406 17.8607C22.559 13.658 22.1026 6.74927 18.4302 3.07741ZM18.5173 17.2203L11.001 28.0748L3.4727 17.2033C0.624294 13.4054 1.03246 7.16621 4.3471 3.85211C6.12441 2.0748 8.48739 1.09575 11.001 1.09575C13.5147 1.09575 15.8777 2.0748 17.6555 3.85211C20.9702 7.16621 21.3783 13.4054 18.5173 17.2203Z" fill="#D1A954"/>
</svg>
